HIERARCHY
ROOT Hips
{
	OFFSET -3.958830 18.904000 13.208200
	CHANNELS 6 Xposition Yposition Zposition Zrotation Yrotation Xrotation 
	JOINT LHipJoint
	{
		OFFSET 0.000000 0.000000 0.000000
		CHANNELS 3 Zrotation Yrotation Xrotation
		JOINT LeftUpLeg
		{
			OFFSET 1.800000 -1.400000 0.085000
			CHANNELS 3 Zrotation Yrotation Xrotation
			JOINT LeftLeg
			{
				OFFSET 2.215000 -6.000000 0.000000
				CHANNELS 3 Zrotation Yrotation Xrotation
				JOINT LeftFoot
				{
					OFFSET 2.500000 -6.900000 0.000000
					CHANNELS 3 Zrotation Yrotation Xrotation
					JOINT LeftToeBase
					{
						OFFSET 0.200000 -0.500000 1.950000
						CHANNELS 3 Zrotation Yrotation Xrotation
						End Site
						{
							OFFSET 0.000000 0.000000 0.000000
						}
					}
				}
			}
		}
	}
	JOINT RHipJoint
	{
		OFFSET 0.000000 0.000000 0.000000
		CHANNELS 3 Zrotation Yrotation Xrotation
		JOINT RightUpLeg
		{
			OFFSET -1.800000 -1.400000 0.085000
			CHANNELS 3 Zrotation Yrotation Xrotation
			JOINT RightLeg
			{
				OFFSET -2.215000 -6.000000 0.000000
				CHANNELS 3 Zrotation Yrotation Xrotation
				JOINT RightFoot
				{
					OFFSET -2.500000 -6.900000 0.000000
					CHANNELS 3 Zrotation Yrotation Xrotation
					JOINT RightToeBase
					{
						OFFSET -0.200000 -0.500000 1.950000
						CHANNELS 3 Zrotation Yrotation Xrotation
						End Site
						{
							OFFSET 0.000000 0.000000 0.000000
						}
					}
				}
			}
		}
	}
	JOINT LowerBack
	{
		OFFSET 0.000000 0.000000 0.000000
		CHANNELS 3 Zrotation Yrotation Xrotation
		JOINT Spine
		{
			OFFSET -0.087000 1.940000 -0.288900
			CHANNELS 3 Zrotation Yrotation Xrotation
			JOINT Spine1
			{
				OFFSET 0.000000 1.950000 0.060000
				CHANNELS 3 Zrotation Yrotation Xrotation
				JOINT Neck
				{
					OFFSET 0.000000 0.000000 0.000000
					CHANNELS 3 Zrotation Yrotation Xrotation
					JOINT Neck1
					{
						OFFSET 0.000000 1.600000 0.340000
						CHANNELS 3 Zrotation Yrotation Xrotation
						JOINT Head
						{
							OFFSET 0.000000 1.667000 -0.240000
							CHANNELS 3 Zrotation Yrotation Xrotation
							End Site
							{
								OFFSET 0.000000 0.000000 0.000000
							}
						}
					}
				}
				JOINT LeftShoulder
				{
					OFFSET 0.000000 0.000000 0.000000
					CHANNELS 3 Zrotation Yrotation Xrotation
					JOINT LeftArm
					{
						OFFSET 2.700000 1.550000 -0.730000
						CHANNELS 3 Zrotation Yrotation Xrotation
						JOINT LeftForeArm
						{
							OFFSET 5.450000 0.000000 0.000000
							CHANNELS 3 Zrotation Yrotation Xrotation
							JOINT LeftHand
							{
								OFFSET 3.450000 0.000000 0.000000
								CHANNELS 3 Zrotation Yrotation Xrotation
								JOINT LeftHandIndex1
								{
									OFFSET 0.750000 0.000000 0.000000
									CHANNELS 3 Zrotation Yrotation Xrotation
									End Site
									{
										OFFSET 0.000000 0.000000 0.000000
									}
								}
							}
						}
					}
				}
				JOINT RightShoulder
				{
					OFFSET 0.000000 0.000000 0.000000
					CHANNELS 3 Zrotation Yrotation Xrotation
					JOINT RightArm
					{
						OFFSET -2.700000 1.550000 -0.730000
						CHANNELS 3 Zrotation Yrotation Xrotation
						JOINT RightForeArm
						{
							OFFSET -5.450000 0.000000 0.000000
							CHANNELS 3 Zrotation Yrotation Xrotation
							JOINT RightHand
							{
								OFFSET -3.450000 0.000000 0.000000
								CHANNELS 3 Zrotation Yrotation Xrotation
								JOINT RightHandIndex1
								{
									OFFSET -0.750000 0.000000 0.000000
									CHANNELS 3 Zrotation Yrotation Xrotation
									End Site
									{
										OFFSET 0.000000 0.000000 0.000000
									}
								}
							}
						}
					}
				}
			}
		}
	}
}
MOTION
Frames: 13
Frame Time: 0.016667
-0.944860 16.669040 -1.550580 -56.294869 47.154508 -41.152186 -15.455216 6.960027 4.588720 19.377666 6.963353 -67.197330 19.777679 5.270508 34.462219 -0.436698 7.674732 1.497519 1.585750 1.325180 1.110480 19.394489 -5.536775 6.685301 -79.281998 24.979382 -36.893439 65.492518 4.853679 -5.731982 -1.849150 -6.817553 1.635762 0.802800 -0.119360 0.560290 -6.565441 4.279194 -11.554326 32.806385 -12.566386 62.533331 -36.740472 5.852160 24.526742 17.934094 -9.610838 -9.449045 -34.106800 16.768363 59.879946 3.749700 -11.494310 -31.062250 -10.991560 -28.360056 2.145883 -38.424819 -45.214339 -7.005121 -141.364824 -75.253108 113.920345 -3.470608 2.448659 0.876700 -0.268760 0.610730 0.385230 -23.988390 27.734089 -10.388571 -5.087402 21.190284 -18.909595 -38.910028 21.100058 -10.522852 2.716214 -2.223624 0.211890 0.432740 -0.412920 -0.068870 
-0.866460 16.635810 -1.726510 -60.283003 43.385623 -35.685004 -15.231770 6.173231 6.059102 22.639867 8.315240 -75.703225 19.082208 5.589082 34.859554 -0.183698 7.933798 1.314401 1.750520 1.536550 1.292940 19.584765 -6.329042 5.623782 -70.204752 21.981677 -54.875911 45.199934 -6.038327 11.714989 -1.571554 -5.855780 1.891928 0.778050 -0.401450 0.675210 -6.713042 5.508799 -11.522399 43.945857 -13.842787 58.382342 -39.560102 8.726644 22.577512 19.203354 -4.911792 -10.330407 -23.619921 11.393654 76.905645 1.352550 -10.478290 -35.338350 -17.640096 -25.379815 1.867459 -48.418002 -55.078076 7.280268 -41.570106 -85.176960 27.514815 -3.101176 3.361314 0.916490 -0.386640 0.849800 0.381960 -20.240175 23.382072 -5.699464 1.952669 28.187933 -16.194515 -32.374616 28.766393 -10.087865 2.227794 -1.992184 0.436010 0.213550 -0.573300 -0.082380 
-0.867980 16.671960 -1.739140 -58.561621 44.988546 -31.563473 -15.351887 6.570006 6.171707 20.053007 7.093045 -77.700109 18.485230 5.271599 33.036293 -0.267756 7.308663 1.427123 2.105820 1.755890 1.738820 19.435516 -6.050733 5.911309 -58.290840 22.313848 -66.024056 28.466070 -11.150749 29.886510 -1.655210 -5.651367 1.782367 0.900970 -0.908960 0.694640 -6.170548 4.234417 -11.370757 37.666565 -12.223004 65.392245 -38.658798 8.556770 17.432977 19.590393 -1.480950 -12.117357 -15.789775 7.208185 84.131355 -2.700000 -9.742870 -37.743390 -22.342226 -25.940279 -1.576391 -45.253638 -48.543084 -0.163130 -44.075650 -69.511261 23.274321 -2.706207 3.595357 1.116130 -0.683970 1.101960 0.383830 -17.226434 25.568979 1.331925 5.760435 36.097340 -17.354692 -28.189584 28.523091 -9.034156 2.055012 -1.978486 0.533510 -0.076570 -0.887460 -0.262640 
-0.872820 16.638120 -1.740890 -59.419750 48.167794 -33.263041 -15.536158 7.256546 5.978462 15.266107 3.985450 -78.514219 20.424659 3.933594 31.544539 -0.360798 6.720908 1.726159 2.024440 1.794830 1.688450 19.189789 -5.663250 6.242229 -48.901699 24.469396 -67.520769 27.046808 -11.073899 33.204376 -1.688443 -5.615392 1.905995 0.936450 -0.757510 0.581850 -5.445741 2.329834 -11.194711 33.330180 -12.681859 70.849302 -36.417584 6.768350 13.549702 21.282604 -3.310007 -13.430031 -21.125584 13.986987 86.151427 -5.370100 -11.265200 -38.264560 -27.885824 -28.781427 -2.266722 -43.433763 -38.691156 -9.336222 -43.956421 -51.107951 13.853922 -2.729682 3.280402 1.071800 -0.627910 1.124800 0.411610 -14.481003 31.717441 1.890115 15.237789 46.768322 -7.623273 -25.902822 12.316780 -6.292678 2.649056 -1.573079 0.463680 0.274420 -0.833830 -0.174220 
-0.861590 16.588990 -1.734640 -61.976675 50.141664 -34.868191 -15.629771 7.573825 6.104375 12.818652 1.382571 -80.990633 22.167638 2.680195 31.655747 -0.432885 6.651105 1.837205 1.850550 1.566380 1.672680 19.133580 -4.981362 6.537433 -41.145348 25.618276 -71.135822 10.983760 -8.654339 40.779578 -1.500135 -5.026719 2.181423 0.809680 -0.610250 0.578100 -4.751640 0.384465 -11.139424 29.524531 -12.097646 73.700855 -31.027045 7.610771 13.408561 23.316840 -2.394934 -14.936904 -24.205895 16.783629 83.385056 -11.448030 -13.434820 -34.507370 -36.789587 -31.045569 -4.793477 -44.199187 -33.657205 -13.491951 -38.919996 -32.363626 4.289659 -2.705542 3.041017 1.059560 -0.516460 1.062520 0.360840 -12.836091 37.527963 4.736644 20.305623 42.122011 -9.222699 -18.582058 20.235217 -4.858095 1.922653 -1.517596 0.375420 0.437940 -0.703830 -0.183420 
-0.805680 16.517130 -1.618220 -61.471036 55.061458 -30.122524 -15.726488 7.714966 6.895577 13.707046 -4.281131 -84.910794 20.820286 1.660142 34.125829 -0.684343 6.296399 1.942116 2.137020 1.918000 1.904240 19.077016 -3.898849 6.616810 -41.571150 19.031591 -74.864873 23.368737 -9.118196 29.998714 -1.523486 -4.446298 2.334739 1.115880 -0.722710 0.440330 -3.074143 -3.050704 -11.443812 17.788024 -5.495413 66.992956 -24.699832 10.147405 24.837874 26.852098 1.227659 -22.006147 -28.566310 22.990373 87.342064 -10.806790 -14.217770 -36.701440 -53.352485 -41.250131 -1.192007 -27.623099 -34.433946 -17.474441 -22.688144 -27.037833 0.361401 -2.001348 2.464382 1.177450 -0.623210 1.202410 0.442820 -5.433281 49.137073 3.347813 15.834700 37.640549 -12.115466 -12.153145 18.480852 -2.711583 1.777337 -1.325267 0.301750 0.673880 -0.852150 -0.228890 
-0.757880 16.509250 -1.609300 -63.002260 52.574070 -29.017744 -15.679417 7.252466 7.330329 20.810228 -2.657904 -85.603167 18.619484 2.454363 36.040498 -0.577673 6.589766 1.809039 2.232190 1.998130 2.067470 19.216353 -3.476791 6.682125 -38.314282 17.869517 -78.445521 12.267556 -8.244990 34.809371 -1.555047 -4.016218 2.454192 1.083440 -0.864260 0.482630 -3.163599 -3.221404 -11.768895 16.372569 -6.402747 67.614079 -25.309499 10.925466 25.642420 24.398142 5.435890 -26.568660 -24.110216 21.121259 95.235172 -11.367200 -11.381810 -39.809990 -61.533026 -46.896951 -1.352001 -21.984171 -32.398742 -17.374294 -14.456431 -20.284543 -1.132618 -1.745953 2.183236 1.281490 -0.724890 1.372580 0.433480 5.584280 53.352926 4.992939 17.783852 36.856165 -13.052158 -8.019356 18.388948 -1.832768 1.803014 -1.101351 0.381010 0.640600 -0.930090 -0.261020 
-0.743800 16.577820 -1.624010 -58.392715 52.052175 -25.571622 -15.712015 7.259399 7.265191 22.787996 -2.661713 -82.390001 16.368815 3.436798 36.689009 -0.539206 6.551257 1.807426 2.263760 2.056220 2.021500 19.137904 -3.712555 6.738815 -39.916606 15.958478 -77.954929 21.432082 -9.272278 30.762381 -1.627981 -4.429875 2.293015 1.122100 -0.905500 0.476910 -3.317258 -2.613857 -11.740272 14.690370 -5.378990 70.478842 -22.640702 12.958189 26.611859 21.681710 4.380952 -29.872158 -26.339361 21.683793 93.836207 -8.959780 -9.459890 -38.257650 -57.291572 -45.570706 3.779997 -20.991310 -39.807779 -13.345844 -12.868902 -14.061706 -1.942153 -2.788072 1.792686 1.265680 -0.741870 1.363710 0.453640 8.442169 53.019545 5.035903 21.501099 33.551915 -14.348737 -6.311002 19.043889 -1.965628 1.758782 -1.316417 0.405280 0.538210 -0.981990 -0.254210 
-0.752030 16.591020 -1.646320 -55.914454 46.374955 -24.002929 -15.714478 7.093991 7.115386 27.592006 1.747502 -79.515931 15.240388 5.304613 38.210284 -0.281596 7.199821 1.529056 2.286060 2.088090 1.953230 19.202017 -3.501548 6.961305 -41.760998 16.962356 -80.566334 23.757317 -9.287661 30.421816 -1.657701 -4.527160 2.240421 1.070290 -0.971880 0.553950 -3.308755 -2.482871 -11.774503 13.278905 -3.113993 72.291702 -18.230482 13.438898 20.998560 18.090134 1.484209 -26.566563 -28.846278 23.526648 92.408387 -7.410570 -7.693800 -36.189600 -56.800315 -43.249436 -1.837333 -29.564019 -33.724056 -13.032903 -20.849584 -12.684485 -1.990735 -2.674027 2.405851 1.185390 -0.757370 1.353170 0.459620 16.729754 51.705008 8.448596 25.554310 29.295812 -14.058817 -2.043219 19.973769 -1.731661 1.867483 -1.457738 0.547220 0.308410 -1.021210 -0.209600 
-0.742610 16.611490 -1.657290 -52.826111 45.933834 -24.970508 -15.703695 7.366423 6.563157 26.094751 0.759005 -75.465376 16.219065 4.844036 39.133842 -0.058471 7.011743 1.578696 2.282230 2.155200 1.865820 19.182474 -3.598957 7.034504 -50.525212 12.082899 -76.296350 48.400077 -9.840387 18.389111 -2.120616 -6.037078 1.802733 0.990400 -0.969550 0.665660 -3.360822 -2.594250 -11.669424 12.219957 -3.740710 75.514269 -18.609346 10.976452 14.013346 16.948598 -0.581105 -21.084333 -27.053498 22.829349 90.878716 -7.982700 -5.671270 -34.531520 -54.035823 -39.282826 -4.291829 -32.599394 -27.497741 -14.431586 -28.554103 -14.707758 -1.455723 -2.373078 2.986095 1.031070 -0.710200 1.380110 0.525130 16.925813 47.677802 7.110746 30.126351 27.861776 -12.559031 10.195498 21.413191 -0.856978 1.991703 -1.481194 0.728410 0.141860 -1.066670 -0.095630 
-0.699250 16.650930 -1.725800 -48.856770 38.690420 -22.676543 -15.685317 7.446793 6.145283 28.368848 5.902832 -70.999195 16.361383 6.706893 39.784879 -0.166953 7.910498 1.189259 2.189490 2.027030 1.807090 19.232032 -3.502599 7.280863 -53.366891 14.810651 -78.714047 56.960781 -12.595843 20.577381 -2.353393 -7.065927 1.452505 0.983760 -0.861250 0.719350 -3.408824 -2.320130 -11.698436 11.506911 -1.009069 73.800256 -19.338861 12.274373 13.105213 16.875474 -1.382686 -18.902050 -23.979084 22.294857 91.709118 -6.011360 -4.957700 -34.286830 -51.183758 -37.523187 -6.107424 -32.164459 -25.833013 -14.642186 -35.920303 -17.393042 -0.600074 -2.459805 3.065338 1.060450 -0.615250 1.278050 0.395930 13.870899 47.145791 6.202021 28.422863 34.969219 -5.004841 12.948831 9.462975 -0.726167 2.256898 -1.096003 0.653280 0.162160 -0.875380 -0.154830 
-0.584310 16.749490 -1.772710 -48.714919 34.870915 -24.746088 -15.573057 7.439545 5.710871 30.437876 7.389138 -65.466518 16.574607 7.096270 39.291457 -0.102312 7.909360 1.199621 2.274860 2.187270 1.791650 19.322002 -3.814664 7.431430 -61.853719 11.177514 -74.092999 69.683456 -9.249799 12.384505 -2.562360 -7.206313 1.467487 1.059910 -0.861970 0.686940 -3.940544 -1.320854 -11.598699 14.849876 -4.264144 75.485705 -23.723064 10.953037 11.606936 16.975512 -1.320463 -17.410008 -21.377159 21.374027 91.700467 -3.867600 -3.969990 -35.845470 -46.513392 -36.921892 -5.907325 -30.904774 -25.496071 -15.210204 -44.045573 -23.720527 2.553561 -2.305947 3.272101 1.053490 -0.638740 1.333540 0.508210 9.091649 45.333348 5.404410 29.355423 39.714410 0.185864 12.089262 3.876944 -0.616535 2.474803 -1.007867 0.675290 0.215900 -0.963550 -0.102890 
-0.518890 16.750280 -1.760760 -49.201789 33.137608 -25.073351 -15.490333 7.183942 5.672819 32.679321 7.543731 -63.883601 16.771646 7.248780 40.354690 -0.170109 8.113861 1.113506 2.222220 2.062240 1.876370 19.413368 -3.921297 7.495424 -63.716475 7.283403 -70.003840 80.505709 -6.789354 6.521828 -2.662126 -7.189187 1.477989 1.016980 -0.961650 0.636950 -4.264889 -0.633789 -11.630529 18.305745 -8.284063 70.534850 -25.363239 9.804032 13.747106 16.290058 -1.258407 -17.710570 -18.477060 18.807813 93.563082 -7.157750 -2.839910 -38.124400 -44.726790 -36.586021 -4.703450 -27.487812 -24.863284 -15.030573 -50.698612 -32.929340 8.571585 -2.319703 3.244801 1.187550 -0.687390 1.351430 0.414570 9.777338 43.460236 9.043335 39.632647 37.990245 -9.828445 -7.050727 24.443233 -3.690768 1.821405 -1.639505 0.579450 0.223370 -0.934180 -0.235840 
